<?xml version="1.0" standalone="no"?>
<!DOCTYPE svg PUBLIC "-//W3C//DTD SVG 20010904//EN"
 "http://www.w3.org/TR/2001/REC-SVG-20010904/DTD/svg10.dtd">
<svg version="1.0" xmlns="http://www.w3.org/2000/svg"
 width="295.000000pt" height="295.000000pt" viewBox="0 0 295.000000 295.000000"
 preserveAspectRatio="xMidYMid meet">
<metadata>
Created by potrace 1.14, written by Peter Selinger 2001-2017
</metadata>
<g transform="translate(0.000000,295.000000) scale(0.100000,-0.100000)"
fill="#000000" stroke="none">
<path d="M45 2938 c-46 -26 -44 32 -45 -1456 0 -1530 -3 -1461 52 -1476 13 -3
106 -6 208 -6 167 0 187 2 210 20 l25 19 3 685 2 686 275 0 275 0 0 -677 c1
-517 4 -682 13 -694 27 -35 54 -39 244 -39 237 1 236 0 241 119 l4 81 274 0
274 0 0 -65 c0 -35 5 -75 11 -89 20 -42 51 -47 256 -44 171 3 191 5 209 22 19
19 19 51 22 1288 l2 1268 159 0 c140 0 160 2 174 18 21 23 22 51 1 80 -15 21
-21 22 -175 22 l-159 0 0 90 c0 99 -10 132 -47 149 -25 11 -359 16 -399 5 -38
-10 -54 -54 -54 -153 l0 -91 -154 0 c-149 0 -155 -1 -170 -22 -21 -30 -20 -61
2 -81 16 -14 43 -17 170 -17 l152 0 0 -1130 0 -1130 -275 0 -275 0 0 1288 c-1
996 -3 1291 -13 1303 -27 35 -54 39 -244 39 -197 -1 -208 -3 -231 -47 -9 -16
-12 -203 -12 -697 l0 -676 -275 0 -275 0 0 673 c0 369 -3 682 -6 695 -12 44
-48 52 -246 52 -119 -1 -190 -5 -203 -12z"/>
</g>
</svg>
